<?xml version="1.0" encoding="UTF-8"?>
<svg xmlns="http://www.w3.org/2000/svg" xmlns:xlink="http://www.w3.org/1999/xlink" width="79pt" height="79pt" viewBox="0 0 79 79" version="1.1">
<g id="surface1">
<path style=" stroke:none;fill-rule:nonzero;fill:rgb(20.392157%,28.627451%,36.862745%);fill-opacity:1;" d="M 39.5 79 C 17.71875 79 0 61.28125 0 39.5 C 0 17.71875 17.71875 0 39.5 0 C 61.28125 0 79 17.71875 79 39.5 C 79 61.28125 61.28125 79 39.5 79 Z M 39.5 3.3125 C 19.542969 3.3125 3.3125 19.542969 3.3125 39.5 C 3.3125 59.457031 19.542969 75.6875 39.5 75.6875 C 59.457031 75.6875 75.6875 59.453125 75.6875 39.5 C 75.6875 19.546875 59.453125 3.3125 39.5 3.3125 Z M 39.5 3.3125 "/>
<path style=" stroke:none;fill-rule:nonzero;fill:rgb(20.392157%,28.627451%,36.862745%);fill-opacity:1;" d="M 45.378906 29.535156 L 40.765625 24.917969 C 43.136719 25.183594 45.359375 26.191406 47.125 27.792969 Z M 44.609375 30.308594 L 39.152344 24.851562 C 38.441406 24.875 37.734375 24.960938 37.039062 25.113281 L 43.421875 31.5 Z M 42.648438 32.269531 L 35.832031 25.460938 C 35.261719 25.652344 34.707031 25.890625 34.175781 26.175781 L 41.460938 33.464844 Z M 40.6875 34.230469 L 33.207031 26.75 C 32.738281 27.0625 32.292969 27.410156 31.875 27.792969 L 39.5 35.417969 Z M 47.125 44.59375 L 31.101562 28.5625 C 29.203125 30.648438 28.152344 33.371094 28.15625 36.191406 C 28.15625 40.679688 30.800781 44.75 34.90625 46.566406 C 39.011719 48.382812 43.800781 47.609375 47.125 44.589844 Z M 47.898438 43.820312 C 51.824219 39.492188 51.824219 32.890625 47.898438 28.5625 L 40.273438 36.1875 Z M 60.203125 16.796875 L 18.796875 16.796875 C 17.699219 16.796875 16.8125 17.683594 16.8125 18.78125 L 16.8125 52.542969 C 16.808594 53.640625 17.699219 54.53125 18.796875 54.53125 L 60.203125 54.53125 C 61.300781 54.53125 62.191406 53.640625 62.1875 52.542969 L 62.1875 18.78125 C 62.1875 17.683594 61.300781 16.792969 60.203125 16.792969 Z M 58.765625 33.960938 L 58.765625 49.976562 C 58.769531 50.429688 58.589844 50.867188 58.269531 51.191406 C 57.949219 51.511719 57.511719 51.691406 57.058594 51.6875 L 21.941406 51.6875 C 21.488281 51.691406 21.054688 51.511719 20.734375 51.191406 C 20.414062 50.871094 20.234375 50.4375 20.234375 49.984375 L 20.234375 21.320312 C 20.234375 20.378906 21 19.613281 21.941406 19.613281 L 57.058594 19.613281 C 58 19.617188 58.761719 20.378906 58.765625 21.320312 Z M 48.488281 58.789062 L 44.964844 58.789062 L 44.964844 55.378906 L 34.035156 55.378906 L 34.035156 58.789062 L 30.511719 58.789062 C 30.230469 58.785156 30.003906 59.015625 30.003906 59.296875 L 30.003906 61.695312 C 30.003906 61.976562 30.230469 62.203125 30.511719 62.203125 L 48.488281 62.203125 C 48.621094 62.203125 48.753906 62.148438 48.847656 62.054688 C 48.941406 61.960938 48.996094 61.832031 48.996094 61.695312 L 48.996094 59.300781 C 49 59.164062 48.945312 59.035156 48.847656 58.9375 C 48.753906 58.839844 48.625 58.785156 48.488281 58.785156 Z M 48.488281 58.789062 "/>
</g>
</svg>
